# xmcd
#
# Track frame offsets: 
#        150
#        15733
#        28625
#        39799
#        56285
#        71078
#        86391
#        102978
#        116163
#        135063
#        147413
#        162523
#        174056
#        193063
#        203051
#        212586
#        225438
#        239373
#        253311
#
# Disc length: 3592 seconds
#
# Revision: 0
# Processed by: cddbd v1.5.2PL0 Copyright (c) Steve Scherf et al.
# Submitted via: ExactAudioCopy v0.99pb4
#
DISCID=fa0e0613
DTITLE=Roy Clark - The Roy Clark Anthology - Disc 2
DYEAR=2004
DGENRE=Country
TTITLE0=I'll Paint You a Song
TTITLE1=Love Is Just a State of Mind
TTITLE2=Do You Believe This Town
TTITLE3=Then She's A Lover
TTITLE4=A Simple Thing As Love
TTITLE5=Shoulder to Shoulder (Arm and Arm)
TTITLE6=Magnificent Sanctuary Band
TTITLE7=Another Lonely Night With You
TTITLE8=Somewhere There's a Tree
TTITLE9=I'm So Lonesome I Could Cry
TTITLE10=The Days Of Sand And Shovels
TTITLE11=Rollin' in My Sweet Baby's Arms
TTITLE12=Sunday Morning Comin' Down
TTITLE13=Is Anybody Goin' to San Antone
TTITLE14=Kiss an Angel Good Morning
TTITLE15=Carolyn
TTITLE16=A Daisy a Day
TTITLE17=Daddy Don't You Walk So Fast
TTITLE18=Why Me
EXTD=
EXTT0=
EXTT1=
EXTT2=
EXTT3=
EXTT4=
EXTT5=
EXTT6=
EXTT7=
EXTT8=
EXTT9=
EXTT10=
EXTT11=
EXTT12=
EXTT13=
EXTT14=
EXTT15=
EXTT16=
EXTT17=
EXTT18=
PLAYORDER=
